<?xml version="1.0" encoding="utf-8"?>
<svg version="1.1" id="Capa_1" x="0px" y="0px" viewBox="0 0 512 512" style="enable-background:new 0 0 512 512;" xmlns="http://www.w3.org/2000/svg">
  <g>
    <g>
      <path d="M422.289,158.44c16.04-15.012,24.795-33.873,24.795-53.704c0-22.895-11.497-44.238-32.374-60.101&#10;&#9;&#9;&#9;c-20.058-15.24-46.576-23.634-74.669-23.634c-23.064,0-45.017,5.612-63.483,16.229c-0.026,0.015-0.049,0.033-0.074,0.048&#10;&#9;&#9;&#9;c-4.09-4.134-8.679-8.044-13.756-11.683C239.701,9.09,209.256,0,177,0s-62.702,9.09-85.729,25.597&#10;&#9;&#9;&#9;C67.237,42.825,54.001,66.052,54.001,90.999c0,21.618,10.088,42.153,28.565,58.471l-11.715,35.027&#10;&#9;&#9;&#9;c-1.212,3.625-0.252,7.624,2.473,10.303c1.902,1.87,4.432,2.869,7.012,2.869c1.117,0,2.244-0.188,3.333-0.573l55.209-19.522&#10;&#9;&#9;&#9;c12.272,2.937,25.081,4.425,38.124,4.425c30.377,0,59.143-8.068,81.625-22.793c20.348,18.646,49.731,29.265,81.418,29.265&#10;&#9;&#9;&#9;c11.177,0,22.157-1.33,32.691-3.957l43.86,15.89c1.11,0.402,2.262,0.598,3.405,0.598c2.43,0,4.82-0.886,6.687-2.563&#10;&#9;&#9;&#9;c2.744-2.466,3.907-6.243,3.026-9.826L422.289,158.44z M251.077,140.147c-19.658,14.092-45.966,21.852-74.077,21.852&#10;&#9;&#9;&#9;c-12.415,0-24.56-1.525-36.098-4.533c-1.932-0.503-3.972-0.417-5.856,0.249l-38.73,13.695l7.394-22.106&#10;&#9;&#9;&#9;c1.351-4.039-0.004-8.49-3.377-11.091c-16.982-13.093-26.333-29.86-26.333-47.214c0-18.324,10.271-35.778,28.923-49.148&#10;&#9;&#9;&#9;C122.582,27.761,148.89,20,177,20s54.418,7.761,74.077,21.852C269.728,55.222,280,72.676,280,90.999&#10;&#9;&#9;&#9;C280,109.323,269.729,126.778,251.077,140.147z M404.799,147.182c-2.988,2.441-4.304,6.384-3.382,10.131l4.406,17.918&#10;&#9;&#9;&#9;l-29.208-10.582c-1.95-0.706-4.07-0.79-6.069-0.237c-9.749,2.693-20.011,4.059-30.503,4.059c-25.042,0-48.97-8.084-65.466-21.875&#10;&#9;&#9;&#9;c16.495-15.795,25.423-35.115,25.423-55.597c0-13.315-3.773-26.139-10.943-37.823c14.913-7.969,32.47-12.174,50.986-12.174&#10;&#9;&#9;&#9;c47.996,0,87.043,28.591,87.043,63.734C427.085,120.361,419.17,135.436,404.799,147.182z" style="fill: rgb(255, 197, 1);"/>
    </g>
  </g>
  <g>
    <g>
      <path d="M511.982,318.345c-0.511-30.078-12.642-58.096-34.159-78.89c-21.51-20.787-49.94-31.973-80.008-31.481&#10;&#9;&#9;&#9;c-29.619,0.478-57.388,12.374-78.192,33.497c-20.828,21.147-32.298,49.14-32.298,78.825c0,12.159-12.218,46.729-18.332,59.394&#10;&#9;&#9;&#9;c-1.496,3.099-1.294,6.749,0.536,9.664c1.829,2.915,5.029,4.684,8.47,4.684h20.555l-0.073,10.146&#10;&#9;&#9;&#9;c-0.103,14.353,5.421,27.855,15.556,38.018c10.079,10.108,23.47,15.665,37.735,15.665c0.111,0,0.222-0.002,0.331-0.001&#10;&#9;&#9;&#9;c5.48,0,10.633,2.127,14.518,5.996c3.907,3.89,6.059,9.069,6.059,14.583V502c0,5.523,4.477,10,10,10h93.916&#10;&#9;&#9;&#9;c2.833,0,5.534-1.202,7.43-3.309c1.896-2.105,2.81-4.916,2.515-7.734l-6.116-58.371c-1.825-17.415,2.203-35.268,11.342-50.269&#10;&#9;&#9;&#9;C504.848,370.848,512.404,343.195,511.982,318.345z M474.688,381.914c-11.405,18.722-16.432,41.01-14.153,62.758L465.494,492&#10;&#9;&#9;&#9;H392.68v-13.555c0-10.873-4.243-21.085-11.948-28.756c-7.661-7.629-17.821-11.823-28.626-11.823&#10;&#9;&#9;&#9;c-0.109,0.001-0.22,0.002-0.331,0.001c-8.911,0-17.279-3.472-23.576-9.787c-6.331-6.35-9.783-14.785-9.719-23.752l0.146-20.218&#10;&#9;&#9;&#9;c0.019-2.664-1.026-5.226-2.903-7.117c-1.878-1.892-4.432-2.955-7.097-2.955h-15.559c6.414-16.546,14.259-40.602,14.259-53.742&#10;&#9;&#9;&#9;c0-50.1,40.738-91.515,90.812-92.324c0.506-0.008,1.009-0.012,1.513-0.012c50.201,0,91.477,40.391,92.332,90.726&#10;&#9;&#9;&#9;C492.341,339.59,485.713,363.818,474.688,381.914z" style="fill: rgb(255, 197, 1);"/>
    </g>
  </g>
  <g>
    <g>
      <path d="M359.474,262.931c-3.79-4.017-10.124-4.197-14.142-0.408l-0.221,0.208c-4.004,3.804-4.166,10.134-0.362,14.138&#10;&#9;&#9;&#9;c1.965,2.069,4.605,3.112,7.251,3.112c2.473,0,4.951-0.912,6.888-2.749l0.168-0.159l0.011-0.011&#10;&#9;&#9;&#9;C363.084,273.272,363.264,266.949,359.474,262.931z" style="fill: rgb(255, 197, 1);"/>
    </g>
  </g>
  <g>
    <g>
      <path d="M454.835,263.228c-15.186-14.676-35.233-22.58-56.479-22.227c-7.135,0.115-14.201,1.183-21.001,3.172&#10;&#9;&#9;&#9;c-5.301,1.551-8.341,7.105-6.79,12.406c1.551,5.301,7.105,8.341,12.406,6.79c5.08-1.486,10.365-2.283,15.709-2.37&#10;&#9;&#9;&#9;c32.649-0.53,59.721,25.609,60.276,58.262c0.093,5.464,4.551,9.83,9.995,9.83c0.058,0,0.116-0.001,0.173-0.003&#10;&#9;&#9;&#9;c5.522-0.093,9.923-4.646,9.829-10.168C478.592,297.688,470.026,277.91,454.835,263.228z" style="fill: rgb(255, 197, 1);"/>
    </g>
  </g>
  <g>
    <g>
      <path d="M243.006,379.691c-6.114-12.665-18.332-47.235-18.332-59.394c0-29.684-11.47-57.678-32.298-78.825&#10;&#9;&#9;&#9;c-20.804-21.123-48.573-33.019-78.192-33.497c-30.118-0.505-58.499,10.694-80.008,31.481&#10;&#9;&#9;&#9;c-21.517,20.795-33.648,48.812-34.159,78.89c-0.423,24.849,7.134,52.503,20.214,73.973c9.139,15.001,13.167,32.854,11.342,50.269&#10;&#9;&#9;&#9;l-6.116,58.371c-0.296,2.817,0.619,5.629,2.515,7.734c1.896,2.106,4.597,3.308,7.43,3.308h93.916c5.523,0,10-4.477,10-9.998&#10;&#9;&#9;&#9;v-23.556c0-5.514,2.152-10.693,6.059-14.583c3.908-3.891,9.143-6.033,14.61-5.996c14.344,0.057,27.839-5.501,37.974-15.665&#10;&#9;&#9;&#9;c10.135-10.164,15.659-23.665,15.556-38.018l-0.073-10.146H234c3.441,0,6.641-1.769,8.47-4.684&#10;&#9;&#9;&#9;C244.3,386.441,244.502,382.79,243.006,379.691z M203.373,374.037c-2.665,0-5.22,1.064-7.097,2.955&#10;&#9;&#9;&#9;c-1.877,1.89-2.922,4.452-2.903,7.117l0.146,20.218c0.064,8.967-3.387,17.402-9.719,23.752c-6.332,6.35-14.755,9.856-23.725,9.787&#10;&#9;&#9;&#9;c-10.84-0.053-21.103,4.151-28.808,11.823c-7.705,7.671-11.948,17.883-11.948,28.756V492H46.505l4.96-47.331&#10;&#9;&#9;&#9;c2.279-21.748-2.748-44.036-14.153-62.758c-11.025-18.096-17.652-42.324-17.297-63.228c0.855-50.338,42.128-90.725,92.332-90.725&#10;&#9;&#9;&#9;c0.501,0,1.01,0.004,1.513,0.012c50.075,0.809,90.812,42.225,90.812,92.324c0,13.14,7.845,37.197,14.259,53.742H203.373z" style="fill: rgb(255, 197, 1);"/>
    </g>
  </g>
  <g>
    <g>
      <path d="M134.645,244.176c-6.8-1.989-13.866-3.057-21.002-3.172c-21.26-0.36-41.293,7.551-56.479,22.227&#10;&#9;&#9;&#9;c-15.192,14.681-23.757,34.46-24.118,55.692c-0.093,5.522,4.307,10.074,9.829,10.168c0.058,0.001,0.115,0.001,0.173,0.001&#10;&#9;&#9;&#9;c5.443,0,9.902-4.366,9.996-9.828c0.549-32.331,27.058-58.27,59.304-58.27c0.323,0,0.649,0.003,0.972,0.008&#10;&#9;&#9;&#9;c5.344,0.087,10.629,0.884,15.709,2.37c5.305,1.553,10.855-1.49,12.406-6.79C142.985,251.281,139.945,245.727,134.645,244.176z" style="fill: rgb(255, 197, 1);"/>
    </g>
  </g>
  <g>
    <g>
      <path d="M177,40.026c-17.139,0-31.082,13.943-31.082,31.081c0,5.523,4.477,10,10,10c5.523,0,10-4.477,10-10&#10;&#9;&#9;&#9;c0-6.11,4.971-11.081,11.082-11.081s11.082,4.971,11.082,11.081c0,6.111-4.972,11.082-11.082,11.082c-5.523,0-10,4.477-10,10&#10;&#9;&#9;&#9;v11.435c0,5.523,4.477,10,10,10s10-4.477,10-10v-3.085c12.248-4.173,21.082-15.79,21.082-29.432&#10;&#9;&#9;&#9;C208.082,53.969,194.139,40.026,177,40.026z" style="fill: rgb(255, 197, 1);"/>
    </g>
  </g>
  <g>
    <g>
      <path d="M184.07,121.682c-1.86-1.86-4.44-2.93-7.07-2.93s-5.21,1.07-7.07,2.93c-1.86,1.86-2.93,4.44-2.93,7.07&#10;&#9;&#9;&#9;s1.07,5.21,2.93,7.07c1.86,1.86,4.44,2.93,7.07,2.93s5.21-1.07,7.07-2.93s2.93-4.44,2.93-7.07S185.93,123.542,184.07,121.682z" style="fill: rgb(255, 197, 1);"/>
    </g>
  </g>
  <g>
    <g>
      <path d="M393.969,79.67h-55.535c-5.523,0-10,4.477-10,10c0,5.523,4.477,10,10,10h55.535c5.523,0,10-4.477,10-10&#10;&#9;&#9;&#9;C403.969,84.146,399.492,79.67,393.969,79.67z" style="fill: rgb(255, 197, 1);"/>
    </g>
  </g>
  <g>
    <g>
      <path d="M391.51,115.669h-72.178c-5.523,0-10,4.477-10,10s4.477,10,10,10h72.178c5.523,0,10-4.477,10-10&#10;&#9;&#9;&#9;S397.033,115.669,391.51,115.669z" style="fill: rgb(255, 197, 1);"/>
    </g>
  </g>
  <g>
    <g>
      <path d="M167.273,262.931c-3.79-4.017-10.124-4.197-14.142-0.408l-0.221,0.208c-4.004,3.804-4.166,10.134-0.362,14.138&#10;&#9;&#9;&#9;c1.965,2.069,4.605,3.112,7.251,3.112c2.473,0,4.952-0.912,6.888-2.749l0.168-0.159l0.011-0.011&#10;&#9;&#9;&#9;C170.883,273.272,171.063,266.949,167.273,262.931z" style="fill: rgb(255, 197, 1);"/>
    </g>
  </g>
  <g/>
  <g/>
  <g/>
  <g/>
  <g/>
  <g/>
  <g/>
  <g/>
  <g/>
  <g/>
  <g/>
  <g/>
  <g/>
  <g/>
  <g/>
</svg>